<svg xmlns="http://www.w3.org/2000/svg" xmlns:xlink="http://www.w3.org/1999/xlink" width="1920" height="1058" viewBox="0 0 1920 1058">
  <defs>
    <clipPath id="clip-path">
      <rect id="Rectangle_148768" data-name="Rectangle 148768" width="1920" height="1058" transform="translate(0 104)" fill="#fff" stroke="#707070" stroke-width="1"/>
    </clipPath>
    <linearGradient id="linear-gradient" x1="0.5" x2="0.5" y2="0.806" gradientUnits="objectBoundingBox">
      <stop offset="0" stop-color="#8af8b0"/>
      <stop offset="0.468" stop-color="#0399dc"/>
      <stop offset="1" stop-color="#fffefc"/>
    </linearGradient>
    <linearGradient id="linear-gradient-4" y1="1" x2="0.5" y2="0.194" xlink:href="#linear-gradient"/>
  </defs>
  <g id="Mask_Group_62" data-name="Mask Group 62" transform="translate(0 -104)" clip-path="url(#clip-path)">
    <g id="Group_163668" data-name="Group 163668">
      <path id="Subtraction_21" data-name="Subtraction 21" d="M14505.5,8328.011a435.412,435.412,0,0,1-43.812-2.212,429.877,429.877,0,0,1-42.546-6.493c-13.8-2.825-27.619-6.378-41.064-10.56-13.3-4.137-26.544-8.984-39.368-14.409a429.743,429.743,0,0,1-228.034-228.035c-5.426-12.828-10.273-26.074-14.409-39.369-4.183-13.447-7.735-27.263-10.559-41.065a429.591,429.591,0,0,1-6.494-42.547,435,435,0,0,1,0-87.624,429.591,429.591,0,0,1,6.494-42.547c2.823-13.8,6.376-27.618,10.559-41.065,4.136-13.3,8.984-26.543,14.409-39.369a429.751,429.751,0,0,1,228.034-228.035c12.824-5.425,26.069-10.272,39.368-14.409,13.442-4.181,27.258-7.733,41.064-10.559a429.632,429.632,0,0,1,42.546-6.493,434.9,434.9,0,0,1,87.623,0,429.652,429.652,0,0,1,42.547,6.493c13.809,2.826,27.625,6.378,41.065,10.559,13.3,4.137,26.544,8.984,39.368,14.409a429.74,429.74,0,0,1,228.036,228.035c5.425,12.826,10.273,26.072,14.409,39.369,4.183,13.447,7.735,27.264,10.559,41.065a429.591,429.591,0,0,1,6.494,42.547,435,435,0,0,1,0,87.624,429.591,429.591,0,0,1-6.494,42.547c-2.823,13.8-6.376,27.618-10.559,41.065-4.136,13.3-8.983,26.542-14.409,39.369a429.736,429.736,0,0,1-228.036,228.035c-12.824,5.425-26.069,10.272-39.368,14.409-13.443,4.182-27.26,7.734-41.065,10.56a429.9,429.9,0,0,1-42.547,6.493A435.383,435.383,0,0,1,14505.5,8328.011Zm0-849.692a428.054,428.054,0,0,0-43.064,2.175,422.333,422.333,0,0,0-41.819,6.382c-13.573,2.778-27.154,6.27-40.364,10.379-13.071,4.066-26.091,8.831-38.7,14.164a422.418,422.418,0,0,0-224.142,224.145c-5.331,12.6-10.1,25.624-14.163,38.7-4.108,13.208-7.6,26.788-10.379,40.365a422.307,422.307,0,0,0-6.382,41.82,427.454,427.454,0,0,0,0,86.128,422.307,422.307,0,0,0,6.382,41.82c2.778,13.576,6.271,27.157,10.379,40.364,4.065,13.071,8.831,26.091,14.163,38.7a422.413,422.413,0,0,0,224.142,224.144c12.61,5.334,25.63,10.1,38.7,14.164,13.216,4.109,26.8,7.6,40.364,10.379a422.608,422.608,0,0,0,41.819,6.382,427.458,427.458,0,0,0,86.129,0,422.539,422.539,0,0,0,41.82-6.382c13.565-2.776,27.146-6.269,40.364-10.379,13.067-4.064,26.087-8.83,38.7-14.164a422.427,422.427,0,0,0,224.145-224.144c5.335-12.612,10.1-25.631,14.164-38.7,4.11-13.216,7.6-26.8,10.379-40.364a422.307,422.307,0,0,0,6.382-41.82,427.454,427.454,0,0,0,0-86.128,422.307,422.307,0,0,0-6.382-41.82c-2.777-13.568-6.27-27.149-10.379-40.365-4.064-13.068-8.83-26.087-14.164-38.7a422.422,422.422,0,0,0-224.145-224.145c-12.606-5.332-25.626-10.1-38.7-14.164-13.213-4.11-26.794-7.6-40.364-10.379a422.221,422.221,0,0,0-41.82-6.382A428.054,428.054,0,0,0,14505.5,7478.319Z" transform="translate(-14340 -7495)" fill="url(#linear-gradient)"/>
      <path id="Subtraction_22" data-name="Subtraction 22" d="M14505.5,8328.011a435.412,435.412,0,0,1-43.812-2.212,429.877,429.877,0,0,1-42.546-6.493c-13.8-2.825-27.619-6.378-41.064-10.56-13.3-4.137-26.544-8.984-39.368-14.409a429.743,429.743,0,0,1-228.034-228.035c-5.426-12.828-10.273-26.074-14.409-39.369-4.183-13.447-7.735-27.263-10.559-41.065a429.591,429.591,0,0,1-6.494-42.547,435,435,0,0,1,0-87.624,429.591,429.591,0,0,1,6.494-42.547c2.823-13.8,6.376-27.618,10.559-41.065,4.136-13.3,8.984-26.543,14.409-39.369a429.751,429.751,0,0,1,228.034-228.035c12.824-5.425,26.069-10.272,39.368-14.409,13.442-4.181,27.258-7.733,41.064-10.559a429.632,429.632,0,0,1,42.546-6.493,434.9,434.9,0,0,1,87.623,0,429.652,429.652,0,0,1,42.547,6.493c13.809,2.826,27.625,6.378,41.065,10.559,13.3,4.137,26.544,8.984,39.368,14.409a429.74,429.74,0,0,1,228.036,228.035c5.425,12.826,10.273,26.072,14.409,39.369,4.183,13.447,7.735,27.264,10.559,41.065a429.591,429.591,0,0,1,6.494,42.547,435,435,0,0,1,0,87.624,429.591,429.591,0,0,1-6.494,42.547c-2.823,13.8-6.376,27.618-10.559,41.065-4.136,13.3-8.983,26.542-14.409,39.369a429.736,429.736,0,0,1-228.036,228.035c-12.824,5.425-26.069,10.272-39.368,14.409-13.443,4.182-27.26,7.734-41.065,10.56a429.9,429.9,0,0,1-42.547,6.493A435.383,435.383,0,0,1,14505.5,8328.011Zm0-849.692a428.054,428.054,0,0,0-43.064,2.175,422.333,422.333,0,0,0-41.819,6.382c-13.573,2.778-27.154,6.27-40.364,10.379-13.071,4.066-26.091,8.831-38.7,14.164a422.418,422.418,0,0,0-224.142,224.145c-5.331,12.6-10.1,25.624-14.163,38.7-4.108,13.208-7.6,26.788-10.379,40.365a422.307,422.307,0,0,0-6.382,41.82,427.454,427.454,0,0,0,0,86.128,422.307,422.307,0,0,0,6.382,41.82c2.778,13.576,6.271,27.157,10.379,40.364,4.065,13.071,8.831,26.091,14.163,38.7a422.413,422.413,0,0,0,224.142,224.144c12.61,5.334,25.63,10.1,38.7,14.164,13.216,4.109,26.8,7.6,40.364,10.379a422.608,422.608,0,0,0,41.819,6.382,427.458,427.458,0,0,0,86.129,0,422.539,422.539,0,0,0,41.82-6.382c13.565-2.776,27.146-6.269,40.364-10.379,13.067-4.064,26.087-8.83,38.7-14.164a422.427,422.427,0,0,0,224.145-224.144c5.335-12.612,10.1-25.631,14.164-38.7,4.11-13.216,7.6-26.8,10.379-40.364a422.307,422.307,0,0,0,6.382-41.82,427.454,427.454,0,0,0,0-86.128,422.307,422.307,0,0,0-6.382-41.82c-2.777-13.568-6.27-27.149-10.379-40.365-4.064-13.068-8.83-26.087-14.164-38.7a422.422,422.422,0,0,0-224.145-224.145c-12.606-5.332-25.626-10.1-38.7-14.164-13.213-4.11-26.794-7.6-40.364-10.379a422.221,422.221,0,0,0-41.82-6.382A428.054,428.054,0,0,0,14505.5,7478.319Z" transform="translate(992.925 -15796.887) rotate(60)" fill="url(#linear-gradient)"/>
      <path id="Subtraction_25" data-name="Subtraction 25" d="M14505.5,8328.011a435.412,435.412,0,0,1-43.812-2.212,429.877,429.877,0,0,1-42.546-6.493c-13.8-2.825-27.619-6.378-41.064-10.56-13.3-4.137-26.544-8.984-39.368-14.409a429.743,429.743,0,0,1-228.034-228.035c-5.426-12.828-10.273-26.074-14.409-39.369-4.183-13.447-7.735-27.263-10.559-41.065a429.591,429.591,0,0,1-6.494-42.547,435,435,0,0,1,0-87.624,429.591,429.591,0,0,1,6.494-42.547c2.823-13.8,6.376-27.618,10.559-41.065,4.136-13.3,8.984-26.543,14.409-39.369a429.751,429.751,0,0,1,228.034-228.035c12.824-5.425,26.069-10.272,39.368-14.409,13.442-4.181,27.258-7.733,41.064-10.559a429.632,429.632,0,0,1,42.546-6.493,434.9,434.9,0,0,1,87.623,0,429.652,429.652,0,0,1,42.547,6.493c13.809,2.826,27.625,6.378,41.065,10.559,13.3,4.137,26.544,8.984,39.368,14.409a429.74,429.74,0,0,1,228.036,228.035c5.425,12.826,10.273,26.072,14.409,39.369,4.183,13.447,7.735,27.264,10.559,41.065a429.591,429.591,0,0,1,6.494,42.547,435,435,0,0,1,0,87.624,429.591,429.591,0,0,1-6.494,42.547c-2.823,13.8-6.376,27.618-10.559,41.065-4.136,13.3-8.983,26.542-14.409,39.369a429.736,429.736,0,0,1-228.036,228.035c-12.824,5.425-26.069,10.272-39.368,14.409-13.443,4.182-27.26,7.734-41.065,10.56a429.9,429.9,0,0,1-42.547,6.493A435.383,435.383,0,0,1,14505.5,8328.011Zm0-849.692a428.054,428.054,0,0,0-43.064,2.175,422.333,422.333,0,0,0-41.819,6.382c-13.573,2.778-27.154,6.27-40.364,10.379-13.071,4.066-26.091,8.831-38.7,14.164a422.418,422.418,0,0,0-224.142,224.145c-5.331,12.6-10.1,25.624-14.163,38.7-4.108,13.208-7.6,26.788-10.379,40.365a422.307,422.307,0,0,0-6.382,41.82,427.454,427.454,0,0,0,0,86.128,422.307,422.307,0,0,0,6.382,41.82c2.778,13.576,6.271,27.157,10.379,40.364,4.065,13.071,8.831,26.091,14.163,38.7a422.413,422.413,0,0,0,224.142,224.144c12.61,5.334,25.63,10.1,38.7,14.164,13.216,4.109,26.8,7.6,40.364,10.379a422.608,422.608,0,0,0,41.819,6.382,427.458,427.458,0,0,0,86.129,0,422.539,422.539,0,0,0,41.82-6.382c13.565-2.776,27.146-6.269,40.364-10.379,13.067-4.064,26.087-8.83,38.7-14.164a422.427,422.427,0,0,0,224.145-224.144c5.335-12.612,10.1-25.631,14.164-38.7,4.11-13.216,7.6-26.8,10.379-40.364a422.307,422.307,0,0,0,6.382-41.82,427.454,427.454,0,0,0,0-86.128,422.307,422.307,0,0,0-6.382-41.82c-2.777-13.568-6.27-27.149-10.379-40.365-4.064-13.068-8.83-26.087-14.164-38.7a422.422,422.422,0,0,0-224.145-224.145c-12.606-5.332-25.626-10.1-38.7-14.164-13.213-4.11-26.794-7.6-40.364-10.379a422.221,422.221,0,0,0-41.82-6.382A428.054,428.054,0,0,0,14505.5,7478.319Z" transform="matrix(0.891, -0.454, 0.454, 0.891, -16282.297, 583.846)" fill="url(#linear-gradient)"/>
      <path id="Subtraction_26" data-name="Subtraction 26" d="M258.5,0a262.8,262.8,0,0,0-26.431,1.334A259.364,259.364,0,0,0,206.4,5.252c-8.328,1.7-16.663,3.847-24.774,6.37-8.022,2.5-16.012,5.42-23.749,8.692A259.253,259.253,0,0,0,20.314,157.881c-3.273,7.738-6.2,15.73-8.692,23.75-2.522,8.113-4.667,16.447-6.37,24.774a258.794,258.794,0,0,0-3.918,25.666,262.459,262.459,0,0,0,0,52.861A258.788,258.788,0,0,0,5.252,310.6c1.7,8.326,3.847,16.661,6.37,24.773,2.5,8.021,5.419,16.013,8.692,23.75A259.234,259.234,0,0,0,157.88,496.69c7.736,3.273,15.726,6.2,23.749,8.692,8.111,2.522,16.444,4.666,24.774,6.371a259.165,259.165,0,0,0,25.666,3.917,262.449,262.449,0,0,0,52.859,0,259.375,259.375,0,0,0,25.668-3.917c8.33-1.706,16.663-3.848,24.772-6.371,8.024-2.5,16.014-5.419,23.751-8.692A259.248,259.248,0,0,0,496.686,359.124c3.271-7.737,6.2-15.729,8.692-23.75,2.522-8.112,4.667-16.447,6.37-24.773a259.352,259.352,0,0,0,3.918-25.668,262.452,262.452,0,0,0,0-52.861,259.358,259.358,0,0,0-3.918-25.666c-1.7-8.327-3.847-16.661-6.37-24.774-2.5-8.02-5.419-16.012-8.692-23.75A259.246,259.246,0,0,0,359.119,20.314c-7.736-3.272-15.726-6.2-23.751-8.692C327.26,9.1,318.925,6.957,310.6,5.252c-8.439-1.726-17.074-3.045-25.668-3.918A262.79,262.79,0,0,0,258.5,0Zm0,512.593a258.243,258.243,0,0,1-25.981-1.312,254.928,254.928,0,0,1-25.229-3.851c-8.188-1.676-16.379-3.782-24.35-6.26-7.886-2.453-15.74-5.328-23.344-8.545A254.822,254.822,0,0,1,24.378,357.405c-3.216-7.6-6.091-15.458-8.545-23.344-2.476-7.968-4.584-16.16-6.26-24.351a253.743,253.743,0,0,1-3.849-25.229,257.655,257.655,0,0,1,0-51.958,253.828,253.828,0,0,1,3.849-25.229c1.676-8.189,3.784-16.383,6.26-24.35,2.453-7.885,5.329-15.74,8.545-23.344A254.816,254.816,0,0,1,159.6,24.38c7.606-3.217,15.461-6.093,23.344-8.545,7.973-2.48,16.166-4.586,24.35-6.262a254.809,254.809,0,0,1,25.229-3.849,257.66,257.66,0,0,1,51.959,0,254.55,254.55,0,0,1,25.229,3.849c8.186,1.676,16.377,3.782,24.351,6.262,7.882,2.451,15.736,5.327,23.346,8.545A254.845,254.845,0,0,1,492.622,159.6c3.219,7.608,6.091,15.462,8.545,23.344,2.48,7.972,4.584,16.165,6.262,24.35a254.962,254.962,0,0,1,3.849,25.229,258.031,258.031,0,0,1,0,51.958,254.875,254.875,0,0,1-3.849,25.229c-1.678,8.186-3.784,16.379-6.262,24.351-2.453,7.883-5.327,15.738-8.545,23.344A254.859,254.859,0,0,1,357.4,492.626c-7.606,3.215-15.461,6.091-23.346,8.545-7.973,2.478-16.164,4.585-24.351,6.26a254.84,254.84,0,0,1-25.229,3.851A258.166,258.166,0,0,1,258.5,512.593Z" transform="translate(1625 415.832) rotate(-110)" fill="url(#linear-gradient-4)"/>
    </g>
  </g>
</svg>
