<svg xmlns="http://www.w3.org/2000/svg" xmlns:xlink="http://www.w3.org/1999/xlink" width="1920" height="1002" viewBox="0 0 1920 1002">
  <defs>
    <clipPath id="clip-path">
      <rect id="Rectangle_148767" data-name="Rectangle 148767" width="1920" height="1002" transform="translate(0 104)" fill="#fff" stroke="#707070" stroke-width="1"/>
    </clipPath>
    <linearGradient id="linear-gradient" x1="0.5" x2="0.514" y2="0.772" gradientUnits="objectBoundingBox">
      <stop offset="0" stop-color="#c38af8"/>
      <stop offset="0.468" stop-color="#03dcd3"/>
      <stop offset="1" stop-color="#fffefc"/>
    </linearGradient>
    <linearGradient id="linear-gradient-6" y1="1" x2="0.514" y2="0.228" xlink:href="#linear-gradient"/>
  </defs>
  <g id="Mask_Group_61" data-name="Mask Group 61" transform="translate(0 -104)" clip-path="url(#clip-path)">
    <g id="Group_163667" data-name="Group 163667">
      <path id="Subtraction_3" data-name="Subtraction 3" d="M20.3,422.26A79.71,79.71,0,0,1,0,369V80A80.593,80.593,0,0,1,1.625,63.877,79.565,79.565,0,0,1,13.663,35.271,80.233,80.233,0,0,1,48.86,6.287,79.6,79.6,0,0,1,63.877,1.625,80.592,80.592,0,0,1,80,0h54a80.592,80.592,0,0,1,16.123,1.625,79.564,79.564,0,0,1,28.606,12.037,80.232,80.232,0,0,1,28.984,35.2,79.6,79.6,0,0,1,4.662,15.017A80.593,80.593,0,0,1,214,80V369a79.705,79.705,0,0,1-20.278,53.229A76.705,76.705,0,0,0,211.511,373V80a76.641,76.641,0,0,0-13.15-43.052,77.226,77.226,0,0,0-33.877-27.9A76.518,76.518,0,0,0,134.511,3H79.488A76.637,76.637,0,0,0,36.437,16.15a77.226,77.226,0,0,0-27.9,33.878A76.519,76.519,0,0,0,2.489,80V373A76.7,76.7,0,0,0,20.3,422.259Z" transform="translate(827 620.252) rotate(180)" fill="url(#linear-gradient)"/>
      <path id="Subtraction_5" data-name="Subtraction 5" d="M134,850.936H80a80.59,80.59,0,0,1-16.123-1.625,79.558,79.558,0,0,1-28.606-12.037,80.232,80.232,0,0,1-28.984-35.2,79.6,79.6,0,0,1-4.662-15.017A80.59,80.59,0,0,1,0,770.936V80A80.59,80.59,0,0,1,1.625,63.877,79.564,79.564,0,0,1,13.663,35.271,80.235,80.235,0,0,1,48.86,6.287,79.6,79.6,0,0,1,63.877,1.625,80.589,80.589,0,0,1,80,0h54a80.589,80.589,0,0,1,16.123,1.625,79.559,79.559,0,0,1,28.606,12.037,80.232,80.232,0,0,1,28.984,35.2,79.6,79.6,0,0,1,4.662,15.017A80.59,80.59,0,0,1,214,80V770.936a80.59,80.59,0,0,1-1.625,16.123,79.564,79.564,0,0,1-12.037,28.606,80.236,80.236,0,0,1-35.2,28.984,79.6,79.6,0,0,1-15.017,4.661A80.59,80.59,0,0,1,134,850.936ZM79.488,2.686a76.642,76.642,0,0,0-43.051,13.15,77.224,77.224,0,0,0-27.9,33.878A76.519,76.519,0,0,0,2.489,79.685V772.831a76.64,76.64,0,0,0,13.15,43.052,77.224,77.224,0,0,0,33.878,27.9,76.518,76.518,0,0,0,29.972,6.051h55.023a76.638,76.638,0,0,0,43.051-13.15,77.225,77.225,0,0,0,27.9-33.878,76.52,76.52,0,0,0,6.051-29.972V79.685a76.64,76.64,0,0,0-13.15-43.051,77.222,77.222,0,0,0-33.878-27.9,76.518,76.518,0,0,0-29.972-6.051Z" transform="translate(1520 620.252) rotate(180)" fill="url(#linear-gradient)"/>
      <path id="Path_191" data-name="Path 191" d="M-4615.331,14511.726" transform="translate(6535 -13606)" fill="none" stroke="#707070" stroke-width="1"/>
      <path id="Subtraction_2" data-name="Subtraction 2" d="M16357,8345.356h-54a80.626,80.626,0,0,1-16.122-1.625,79.574,79.574,0,0,1-28.605-12.038,80.221,80.221,0,0,1-28.984-35.2,79.64,79.64,0,0,1-4.662-15.016,80.619,80.619,0,0,1-1.625-16.122V7551a80.607,80.607,0,0,1,1.625-16.122,79.574,79.574,0,0,1,12.038-28.605,80.244,80.244,0,0,1,35.2-28.985,79.572,79.572,0,0,1,15.017-4.662A80.576,80.576,0,0,1,16303,7471h54a80.576,80.576,0,0,1,16.122,1.625,79.576,79.576,0,0,1,28.6,12.038,80.257,80.257,0,0,1,28.984,35.2,79.437,79.437,0,0,1,4.66,15.017A80.464,80.464,0,0,1,16437,7551v714.36a80.476,80.476,0,0,1-1.625,16.122,79.523,79.523,0,0,1-12.037,28.605,80.227,80.227,0,0,1-35.2,28.983,79.542,79.542,0,0,1-15.015,4.662A80.626,80.626,0,0,1,16357,8345.356Zm-54.514-871.515a76.621,76.621,0,0,0-43.051,13.15,77.22,77.22,0,0,0-27.9,33.878,76.528,76.528,0,0,0-6.051,29.972V8267.3a76.621,76.621,0,0,0,13.15,43.053,77.23,77.23,0,0,0,33.877,27.9,76.523,76.523,0,0,0,29.973,6.051h55.025a77.568,77.568,0,0,0,15.518-1.564,76.6,76.6,0,0,0,27.533-11.585,77.233,77.233,0,0,0,27.9-33.876,76.541,76.541,0,0,0,6.053-29.975V7550.842a76.656,76.656,0,0,0-13.152-43.052,77.232,77.232,0,0,0-33.879-27.9,76.667,76.667,0,0,0-14.453-4.486,77.568,77.568,0,0,0-15.518-1.564Z" transform="translate(-15957 -7095)" fill="url(#linear-gradient)"/>
      <path id="Subtraction_4" data-name="Subtraction 4" d="M16245.94,7810.866a80.728,80.728,0,0,1-9.568-11.782,79.623,79.623,0,0,1-13.371-44.291V7551a80.614,80.614,0,0,1,1.625-16.122,79.564,79.564,0,0,1,12.038-28.605,80.226,80.226,0,0,1,35.2-28.985,79.537,79.537,0,0,1,15.016-4.662A80.576,80.576,0,0,1,16303,7471h54a80.576,80.576,0,0,1,16.122,1.625,79.586,79.586,0,0,1,28.6,12.038,80.264,80.264,0,0,1,28.984,35.2,79.622,79.622,0,0,1,4.662,15.017A80.473,80.473,0,0,1,16437,7551v203.794a79.634,79.634,0,0,1-13.387,44.314,80.371,80.371,0,0,1-9.535,11.736,76.766,76.766,0,0,0,20.436-52.243V7550.429a76.635,76.635,0,0,0-13.15-43.052,77.224,77.224,0,0,0-33.879-27.9,76.624,76.624,0,0,0-14.453-4.487,77.568,77.568,0,0,0-15.518-1.564h-55.025a76.632,76.632,0,0,0-43.051,13.15,77.223,77.223,0,0,0-27.9,33.877,76.534,76.534,0,0,0-6.051,29.972V7758.6a76.757,76.757,0,0,0,20.454,52.264Z" transform="translate(-15264 -7095)" fill="url(#linear-gradient)"/>
      <path id="Subtraction_6" data-name="Subtraction 6" d="M134,850.936H80a80.59,80.59,0,0,1-16.123-1.625,79.558,79.558,0,0,1-28.606-12.037,80.232,80.232,0,0,1-28.984-35.2,79.6,79.6,0,0,1-4.662-15.017A80.59,80.59,0,0,1,0,770.936V80A80.59,80.59,0,0,1,1.625,63.877,79.564,79.564,0,0,1,13.663,35.271,80.235,80.235,0,0,1,48.86,6.287,79.6,79.6,0,0,1,63.877,1.625,80.589,80.589,0,0,1,80,0h54a80.589,80.589,0,0,1,16.123,1.625,79.559,79.559,0,0,1,28.606,12.037,80.232,80.232,0,0,1,28.984,35.2,79.6,79.6,0,0,1,4.662,15.017A80.59,80.59,0,0,1,214,80V770.936a80.59,80.59,0,0,1-1.625,16.123,79.564,79.564,0,0,1-12.037,28.606,80.236,80.236,0,0,1-35.2,28.984,79.6,79.6,0,0,1-15.017,4.661A80.59,80.59,0,0,1,134,850.936ZM79.488,2.686a76.642,76.642,0,0,0-43.051,13.15,77.224,77.224,0,0,0-27.9,33.878A76.519,76.519,0,0,0,2.489,79.685V772.831a76.64,76.64,0,0,0,13.15,43.052,77.224,77.224,0,0,0,33.878,27.9,76.518,76.518,0,0,0,29.972,6.051h55.023a76.638,76.638,0,0,0,43.051-13.15,77.225,77.225,0,0,0,27.9-33.878,76.52,76.52,0,0,0,6.051-29.972V79.685a76.64,76.64,0,0,0-13.15-43.051,77.222,77.222,0,0,0-33.878-27.9,76.518,76.518,0,0,0-29.972-6.051Z" transform="translate(1353.532 926.121) rotate(-90)" fill="url(#linear-gradient)"/>
      <path id="Subtraction_7" data-name="Subtraction 7" d="M134,850.936H80a80.593,80.593,0,0,1-16.123-1.625,79.56,79.56,0,0,1-28.606-12.037,80.231,80.231,0,0,1-28.984-35.2A79.589,79.589,0,0,1,1.625,787.06,80.589,80.589,0,0,1,0,770.937V80A80.59,80.59,0,0,1,1.625,63.877,79.564,79.564,0,0,1,13.663,35.271,80.235,80.235,0,0,1,48.86,6.287,79.6,79.6,0,0,1,63.877,1.625,80.589,80.589,0,0,1,80,0h54a80.589,80.589,0,0,1,16.123,1.625,79.558,79.558,0,0,1,28.606,12.037,80.234,80.234,0,0,1,28.984,35.2,79.613,79.613,0,0,1,4.661,15.017A80.592,80.592,0,0,1,214,80V770.937a80.593,80.593,0,0,1-1.625,16.123,79.56,79.56,0,0,1-12.037,28.606,80.233,80.233,0,0,1-35.2,28.984,79.611,79.611,0,0,1-15.017,4.661A80.593,80.593,0,0,1,134,850.936ZM79.488,1.105a76.639,76.639,0,0,0-43.051,13.15,77.224,77.224,0,0,0-27.9,33.878A76.518,76.518,0,0,0,2.489,78.1V771.251A76.64,76.64,0,0,0,15.639,814.3a77.224,77.224,0,0,0,33.878,27.9,76.518,76.518,0,0,0,29.972,6.051h55.023a76.64,76.64,0,0,0,43.051-13.15,77.224,77.224,0,0,0,27.9-33.878,76.518,76.518,0,0,0,6.051-29.972V78.1a76.639,76.639,0,0,0-13.15-43.051,77.224,77.224,0,0,0-33.878-27.9,76.518,76.518,0,0,0-29.972-6.051Z" transform="translate(393.531 1046.121) rotate(-90)" fill="url(#linear-gradient-6)"/>
      <path id="Subtraction_8" data-name="Subtraction 8" d="M20.3,422.26A79.71,79.71,0,0,1,0,369V80A80.593,80.593,0,0,1,1.625,63.877,79.565,79.565,0,0,1,13.663,35.271,80.233,80.233,0,0,1,48.86,6.287,79.6,79.6,0,0,1,63.877,1.625,80.592,80.592,0,0,1,80,0h54a80.592,80.592,0,0,1,16.123,1.625,79.564,79.564,0,0,1,28.606,12.037,80.232,80.232,0,0,1,28.984,35.2,79.6,79.6,0,0,1,4.662,15.017A80.593,80.593,0,0,1,214,80V369a79.705,79.705,0,0,1-20.278,53.229A76.705,76.705,0,0,0,211.511,373V80a76.641,76.641,0,0,0-13.15-43.052,77.226,77.226,0,0,0-33.877-27.9A76.518,76.518,0,0,0,134.511,3H79.488A76.637,76.637,0,0,0,36.437,16.15a77.226,77.226,0,0,0-27.9,33.878A76.519,76.519,0,0,0,2.489,80V373A76.7,76.7,0,0,0,20.3,422.259Z" transform="translate(266.001 144.121) rotate(90)" fill="url(#linear-gradient)"/>
    </g>
  </g>
</svg>
