<svg xmlns="http://www.w3.org/2000/svg" width="40" height="40" viewBox="0 0 40 40"><g id="vuesax_bulk_ranking" data-name="vuesax/bulk/ranking" transform="translate(-492 -636)"><g id="ranking" transform="translate(492 636)"><path id="Vector" d="M0,0H40V40H0Z" fill="none" opacity="0"></path><path id="Vector-2" data-name="Vector" d="M11.117,0H3.333A3.343,3.343,0,0,0,0,3.333v10H11.117Z" transform="translate(3.333 23.333)" fill="#5c91fa"></path><path id="Vector-3" data-name="Vector" d="M7.783,0H3.333A3.343,3.343,0,0,0,0,3.333V20H11.117V3.333A3.332,3.332,0,0,0,7.783,0Z" transform="translate(14.433 16.667)" fill="#fcbd2e"></path><path id="Vector-4" data-name="Vector" d="M7.783,0H0V8.333H11.117v-5A3.343,3.343,0,0,0,7.783,0Z" transform="translate(25.55 28.333)" fill="#5c91fa"></path><path id="Vector-5" data-name="Vector" d="M10.657,5.929a1.683,1.683,0,0,0,.55-1.667A1.643,1.643,0,0,0,9.791,3.229l-1.6-.267a.545.545,0,0,1-.25-.183L7.057,1.013a1.509,1.509,0,0,0-2.85,0L3.324,2.779a.545.545,0,0,1-.25.183l-1.6.267A1.665,1.665,0,0,0,.057,4.263a1.683,1.683,0,0,0,.55,1.667l1.233,1.25a.549.549,0,0,1,.1.317l-.35,1.533a1.66,1.66,0,0,0,.45,1.867,1.658,1.658,0,0,0,1.917-.133l1.5-.883a.427.427,0,0,1,.35,0l1.5.883a2.206,2.206,0,0,0,1.15.367,1.327,1.327,0,0,0,.75-.233c.283-.2.717-.717.45-1.867L9.307,7.5a.427.427,0,0,1,.1-.317Z" transform="translate(14.359 2.154)" fill="#fcbd2e"></path></g></g></svg>